<svg width="507" height="536" viewBox="0 0 507 536" fill="none" xmlns="http://www.w3.org/2000/svg">
<path d="M71.9199 0.373874C73.8742 0.367188 73.8742 0.367188 75.868 0.360366C77.3122 0.360455 78.7563 0.360645 80.2005 0.360924C81.7361 0.357624 83.2717 0.353898 84.8073 0.349783C89.0293 0.339774 93.2513 0.336048 97.4733 0.333394C102.026 0.329487 106.579 0.319909 111.133 0.311181C122.131 0.291424 133.129 0.28135 144.128 0.272453C149.311 0.268068 154.493 0.262702 159.676 0.257464C176.911 0.240451 194.146 0.225958 211.381 0.218715C215.853 0.216806 220.325 0.214885 224.797 0.212929C226.464 0.212204 226.464 0.212204 228.165 0.211464C246.157 0.203169 264.148 0.177843 282.14 0.145349C300.623 0.112241 319.105 0.0942632 337.588 0.0910711C347.961 0.0889092 358.334 0.0802077 368.706 0.05461C377.543 0.0328521 386.38 0.0248774 395.217 0.0345767C399.722 0.039107 404.226 0.0373098 408.73 0.0178153C412.864 7.8788e-05 416.998 0.00126529 421.132 0.0167126C422.617 0.0190729 424.102 0.0148482 425.588 0.00288394C446.719 -0.156611 464.74 6.29486 480.508 20.5081C481.254 21.1488 481.999 21.7894 482.766 22.4495C494.982 33.6652 502.788 49.2232 505.508 65.5081C505.602 67.8052 505.641 70.1047 505.645 72.4037C505.648 73.0884 505.651 73.7732 505.653 74.4787C505.661 76.7782 505.662 79.0776 505.662 81.3771C505.666 83.0405 505.671 84.704 505.676 86.3674C505.688 90.9429 505.693 95.5183 505.698 100.094C505.704 105.027 505.715 109.961 505.726 114.894C505.751 126.812 505.765 138.73 505.778 150.648C505.782 154.016 505.786 157.383 505.79 160.75C505.815 181.669 505.837 202.587 505.85 223.506C505.853 228.351 505.856 233.196 505.859 238.041C505.859 239.245 505.86 240.449 505.861 241.69C505.873 261.185 505.907 280.68 505.948 300.176C505.991 320.2 506.014 340.224 506.02 360.248C506.023 371.487 506.035 382.726 506.068 393.965C506.096 403.539 506.107 413.114 506.095 422.688C506.09 427.569 506.093 432.45 506.118 437.331C506.141 441.809 506.14 446.287 506.121 450.765C506.118 452.376 506.123 453.986 506.139 455.597C506.328 477.072 498.578 496.793 483.61 512.5C466.131 528.504 447.294 535.001 423.727 534.896C422.183 534.9 420.639 534.905 419.095 534.912C414.891 534.926 410.688 534.922 406.484 534.915C401.935 534.91 397.387 534.923 392.838 534.933C383.942 534.95 375.046 534.951 366.15 534.946C358.916 534.942 351.682 534.943 344.448 534.948C343.416 534.949 342.385 534.95 341.322 534.951C339.225 534.952 337.129 534.954 335.033 534.955C315.399 534.969 295.766 534.964 276.133 534.952C258.193 534.942 240.253 534.955 222.313 534.979C203.865 535.004 185.417 535.013 166.969 535.006C156.622 535.003 146.276 535.005 135.93 535.023C127.123 535.038 118.317 535.038 109.51 535.021C105.022 535.012 100.534 535.01 96.0465 535.025C91.9289 535.039 87.8118 535.034 83.6942 535.015C82.2139 535.011 80.7336 535.014 79.2533 535.025C58.5563 535.161 40.9319 528.347 25.5084 514.508C24.8987 513.991 24.289 513.474 23.6608 512.942C10.6272 501.096 2.97864 482.602 0.508423 465.508C0.41803 463.212 0.377647 460.913 0.374207 458.614C0.371854 457.942 0.369497 457.27 0.367073 456.577C0.36042 454.325 0.360841 452.074 0.361252 449.823C0.357951 448.191 0.354228 446.56 0.350113 444.929C0.340111 440.447 0.336381 435.965 0.333725 431.483C0.329817 426.648 0.320235 421.813 0.311508 416.979C0.291758 405.303 0.28168 393.627 0.272782 381.951C0.268396 376.449 0.263035 370.948 0.257797 365.446C0.240786 347.149 0.226292 328.853 0.219048 310.557C0.217138 305.811 0.215213 301.064 0.213257 296.318C0.212773 295.138 0.212291 293.958 0.211792 292.743C0.203496 273.642 0.178164 254.542 0.145676 235.441C0.112575 215.819 0.094593 196.197 0.0914003 176.576C0.089238 165.563 0.0805302 154.551 0.0549395 143.539C0.0331904 134.159 0.0252011 124.778 0.0349047 115.398C0.0394373 110.616 0.0376235 105.834 0.0181429 101.053C0.0004237 96.6652 0.00158335 92.2781 0.0170443 87.8907C0.0194071 86.3132 0.0151628 84.7357 0.00321217 83.1582C-0.0948577 69.3448 2.03968 56.1643 8.19593 43.6331C8.53406 42.9289 8.8722 42.2248 9.22058 41.4993C12.3663 35.2496 16.4531 30.339 21.5084 25.5081C22.3541 24.6212 23.1997 23.7343 24.0709 22.8206C24.8753 22.0575 25.6797 21.2943 26.5084 20.5081C27.055 19.9783 27.6016 19.4485 28.1647 18.9026C39.8589 8.04716 55.8071 0.399479 71.9199 0.373874Z" fill="#FCFCFC"/>
<path d="M138.401 99.2542C139.871 99.2495 139.871 99.2495 141.37 99.2447C144.644 99.2367 147.918 99.243 151.192 99.2493C153.542 99.2466 155.893 99.2431 158.244 99.2387C164.625 99.2296 171.005 99.2331 177.385 99.2395C183.387 99.244 189.389 99.2405 195.392 99.2376C208.007 99.2319 220.622 99.2385 233.237 99.2492C244.05 99.2581 254.862 99.2566 265.675 99.2474C278.243 99.2367 290.811 99.2325 303.378 99.2386C310.027 99.2418 316.675 99.2421 323.324 99.2355C329.577 99.2297 335.829 99.2338 342.082 99.2453C344.375 99.248 346.667 99.2472 348.96 99.2428C352.094 99.2373 355.228 99.2442 358.362 99.2542C359.265 99.2497 360.168 99.2452 361.098 99.2406C372.221 99.3089 381.774 102.035 390.633 108.946C392.508 111.508 392.508 111.508 393.071 114.508C392.244 118.92 390.192 121.313 386.571 123.883C383.694 124.755 382.381 124.487 379.508 123.508C378.322 122.678 377.143 121.837 375.97 120.989C371.119 117.931 367.007 117.805 361.382 117.873C359.893 117.862 359.893 117.862 358.373 117.85C355.061 117.83 351.749 117.845 348.436 117.861C346.056 117.854 343.675 117.845 341.295 117.835C335.508 117.814 329.722 117.817 323.935 117.832C319.23 117.843 314.525 117.844 309.82 117.839C308.814 117.838 308.814 117.838 307.787 117.837C306.424 117.835 305.062 117.833 303.699 117.832C290.932 117.818 278.164 117.834 265.397 117.861C254.454 117.883 243.512 117.879 232.569 117.856C219.847 117.829 207.126 117.819 194.405 117.834C193.047 117.836 191.689 117.837 190.331 117.839C189.663 117.84 188.995 117.841 188.307 117.841C183.61 117.846 178.914 117.838 174.218 117.827C167.89 117.812 161.563 117.822 155.236 117.851C152.916 117.858 150.596 117.856 148.276 117.845C145.104 117.831 141.934 117.848 138.762 117.873C137.848 117.862 136.934 117.851 135.993 117.839C129.505 117.938 124.743 119.622 119.508 123.508C113.165 130.355 112.211 137.531 112.23 146.569C112.224 147.578 112.218 148.588 112.212 149.628C112.195 153.009 112.193 156.39 112.19 159.771C112.18 162.196 112.17 164.62 112.159 167.045C112.138 172.263 112.122 177.482 112.112 182.701C112.097 190.246 112.072 197.791 112.043 205.336C111.998 217.579 111.961 229.821 111.93 242.063C111.9 253.954 111.866 265.845 111.826 277.735C111.822 278.835 111.822 278.835 111.818 279.957C111.806 283.636 111.794 287.314 111.781 290.992C111.678 321.498 111.588 352.003 111.508 382.508C112.916 382.948 112.916 382.948 114.352 383.396C117.508 384.508 117.508 384.508 120.007 386.3C122.517 387.864 122.517 387.864 125.377 386.615C126.935 385.734 126.935 385.734 128.524 384.836C129.093 384.523 129.662 384.211 130.249 383.888C132.098 382.866 133.928 381.814 135.758 380.758C137.651 379.691 139.547 378.628 141.442 377.566C142.699 376.862 143.953 376.154 145.207 375.443C148.765 373.436 152.348 371.582 156.063 369.883C163.655 366.783 163.655 366.783 168.762 360.836C169.249 358.024 169.249 358.024 169.298 355.215C169.674 350.388 172.296 346.992 175.508 343.508C183.933 336.783 190.862 335.413 201.508 336.508C209.807 339.433 214.759 345.401 218.821 352.946C219.508 355.508 219.508 355.508 219.348 357.479C219.239 360.215 219.446 361.967 220.508 364.508C224.353 367.596 228.737 369.531 233.196 371.571C234.442 372.17 235.686 372.773 236.929 373.38C238.769 374.278 240.61 375.173 242.458 376.055C248.126 378.762 253.461 381.874 258.809 385.153C261.817 386.663 264.147 387.33 267.508 387.508C269.566 386.629 269.566 386.629 271.196 385.133C276.503 380.766 281.864 381.002 288.508 381.508C292.746 382.438 296.361 383.584 299.758 386.321C300.336 386.712 300.913 387.104 301.508 387.508C305.507 386.235 308.995 384.167 312.602 382.051C313.182 381.712 313.762 381.372 314.359 381.023C316.245 379.918 318.127 378.807 320.008 377.696C321.318 376.925 322.627 376.155 323.937 375.385C332.499 370.338 341.02 365.227 349.414 359.904C353.241 357.482 357.053 355.179 361.094 353.129C368.244 349.805 368.244 349.805 372.469 343.606C372.681 340.513 372.681 340.513 372.512 337.434C372.505 331.676 375.595 327.526 379.442 323.469C385.997 317.447 391.266 315.972 400.149 316.133C406.902 316.887 412.259 319.811 416.883 324.758C421.035 330.196 424.302 336.382 423.895 343.403C422.681 350.011 419.866 357.237 414.508 361.508C407.821 365.751 401.519 368.983 393.508 367.508C389.307 366.488 385.651 365.429 382.258 362.696C381.681 362.304 381.103 361.912 380.508 361.508C376.406 362.794 372.913 364.965 369.258 367.196C367.921 368.007 366.584 368.818 365.247 369.629C364.501 370.083 363.756 370.536 362.987 371.004C358.151 373.939 353.297 376.847 348.446 379.758C347.386 380.395 346.326 381.031 345.234 381.687C336.954 386.655 328.648 391.578 320.325 396.472C319.47 396.975 318.615 397.478 317.735 397.996C316.988 398.435 316.241 398.874 315.472 399.326C313.788 400.34 312.144 401.418 310.508 402.508C309.887 405.352 309.887 405.352 309.633 408.633C308.467 417.236 305.26 422.848 298.454 428.254C292.538 432.067 285.465 433.724 278.508 432.508C270.406 429.82 264.548 425.001 260.415 417.532C258.278 412.565 258.175 407.85 258.508 402.508C257.744 402.294 256.98 402.08 256.192 401.86C251.073 399.981 246.382 397.435 241.571 394.883C240.553 394.35 239.536 393.817 238.488 393.267C233.901 390.858 229.331 388.426 224.805 385.903C224.122 385.525 223.439 385.148 222.735 384.759C220.941 383.762 219.156 382.751 217.372 381.739C214.695 380.332 214.695 380.332 212.348 380.649C210.307 381.602 208.602 382.776 206.758 384.071C200.129 387.824 192.84 387.6 185.508 386.508C182.72 385.235 180.637 383.891 178.305 381.918C176.176 380.248 175.213 379.759 172.508 379.508C170.128 380.461 168.004 381.457 165.758 382.664C165.105 383.004 164.451 383.344 163.777 383.695C161.681 384.788 159.595 385.898 157.508 387.008C156.135 387.725 154.762 388.441 153.387 389.157C150.042 390.904 146.717 392.685 143.401 394.487C141.564 395.478 139.716 396.447 137.866 397.415C136.777 398.007 135.689 398.598 134.567 399.207C133.129 399.974 133.129 399.974 131.663 400.757C129.277 402.358 129.277 402.358 128.721 405.193C128.537 407.855 128.537 407.855 128.614 410.664C128.378 417.025 124.809 422.649 120.258 426.946C113.899 431.805 106.4 433.521 98.5085 432.508C91.4476 430.93 86.1613 427.206 81.9616 421.352C78.0667 414.612 77.361 408.164 78.5085 400.508C80.7902 392.993 85.2154 388.051 91.5085 383.508C92.1685 383.178 92.8285 382.848 93.5085 382.508C93.5108 381.245 93.5132 379.982 93.5157 378.681C93.5731 348.678 93.6459 318.674 93.7374 288.671C93.7487 284.975 93.7599 281.279 93.7709 277.583C93.7731 276.847 93.7753 276.111 93.7776 275.353C93.8129 263.452 93.8378 251.552 93.8588 239.651C93.8806 227.432 93.9137 215.213 93.9572 202.994C93.9836 195.46 94.0014 187.925 94.0078 180.391C94.0137 174.605 94.0353 168.819 94.0627 163.033C94.0715 160.666 94.0752 158.299 94.0735 155.931C94.0718 152.69 94.0886 149.449 94.1097 146.208C94.1049 145.279 94.1 144.35 94.095 143.393C94.2267 131.104 98.0137 120.519 106.426 111.438C115.888 102.713 125.717 99.1918 138.401 99.2542Z" fill="#161C25"/>
<path d="M71.9199 0.373874C73.8742 0.367188 73.8742 0.367188 75.868 0.360366C77.3122 0.360455 78.7563 0.360645 80.2005 0.360924C81.7361 0.357624 83.2717 0.353898 84.8073 0.349783C89.0293 0.339774 93.2513 0.336048 97.4733 0.333394C102.026 0.329487 106.579 0.319909 111.133 0.311181C122.131 0.291424 133.129 0.28135 144.128 0.272453C149.311 0.268068 154.493 0.262702 159.676 0.257464C176.911 0.240451 194.146 0.225958 211.381 0.218715C215.853 0.216806 220.325 0.214885 224.797 0.212929C226.464 0.212204 226.464 0.212204 228.165 0.211464C246.157 0.203169 264.148 0.177843 282.14 0.145349C300.623 0.112241 319.105 0.0942632 337.588 0.0910711C347.961 0.0889092 358.334 0.0802077 368.706 0.05461C377.543 0.0328521 386.38 0.0248774 395.217 0.0345767C399.722 0.039107 404.226 0.0373098 408.73 0.0178153C412.864 7.8788e-05 416.998 0.00126529 421.132 0.0167126C422.617 0.0190729 424.102 0.0148482 425.588 0.00288394C446.719 -0.156611 464.74 6.29486 480.508 20.5081C481.254 21.1488 481.999 21.7894 482.766 22.4495C494.982 33.6652 502.788 49.2232 505.508 65.5081C505.602 67.8052 505.641 70.1047 505.645 72.4037C505.648 73.0884 505.651 73.7732 505.653 74.4787C505.661 76.7782 505.662 79.0776 505.662 81.3771C505.666 83.0405 505.671 84.704 505.676 86.3674C505.688 90.9429 505.693 95.5183 505.698 100.094C505.704 105.027 505.715 109.961 505.726 114.894C505.751 126.812 505.765 138.73 505.778 150.648C505.782 154.016 505.786 157.383 505.79 160.75C505.815 181.669 505.837 202.587 505.85 223.506C505.853 228.351 505.856 233.196 505.859 238.041C505.859 239.245 505.86 240.449 505.861 241.69C505.873 261.185 505.907 280.68 505.948 300.176C505.991 320.2 506.014 340.224 506.02 360.248C506.023 371.487 506.035 382.726 506.068 393.965C506.096 403.539 506.107 413.114 506.095 422.688C506.09 427.569 506.093 432.45 506.118 437.331C506.141 441.809 506.14 446.287 506.121 450.765C506.118 452.376 506.123 453.986 506.139 455.597C506.328 477.072 498.578 496.793 483.61 512.5C466.131 528.504 447.294 535.001 423.727 534.896C422.183 534.9 420.639 534.905 419.095 534.912C414.891 534.926 410.688 534.922 406.484 534.915C401.935 534.91 397.387 534.923 392.838 534.933C383.942 534.95 375.046 534.951 366.15 534.946C358.916 534.942 351.682 534.943 344.448 534.948C343.416 534.949 342.385 534.95 341.322 534.951C339.225 534.952 337.129 534.954 335.033 534.955C315.399 534.969 295.766 534.964 276.133 534.952C258.193 534.942 240.253 534.955 222.313 534.979C203.865 535.004 185.417 535.013 166.969 535.006C156.622 535.003 146.276 535.005 135.93 535.023C127.123 535.038 118.317 535.038 109.51 535.021C105.022 535.012 100.534 535.01 96.0465 535.025C91.9289 535.039 87.8118 535.034 83.6942 535.015C82.2139 535.011 80.7336 535.014 79.2533 535.025C58.5563 535.161 40.9319 528.347 25.5084 514.508C24.8987 513.991 24.289 513.474 23.6608 512.942C10.6272 501.096 2.97864 482.602 0.508423 465.508C0.41803 463.212 0.377647 460.913 0.374207 458.614C0.371854 457.942 0.369497 457.27 0.367073 456.577C0.36042 454.325 0.360841 452.074 0.361252 449.823C0.357951 448.191 0.354228 446.56 0.350113 444.929C0.340111 440.447 0.336381 435.965 0.333725 431.483C0.329817 426.648 0.320235 421.813 0.311508 416.979C0.291758 405.303 0.28168 393.627 0.272782 381.951C0.268396 376.449 0.263035 370.948 0.257797 365.446C0.240786 347.149 0.226292 328.853 0.219048 310.557C0.217138 305.811 0.215213 301.064 0.213257 296.318C0.212773 295.138 0.212291 293.958 0.211792 292.743C0.203496 273.642 0.178164 254.542 0.145676 235.441C0.112575 215.819 0.094593 196.197 0.0914003 176.576C0.089238 165.563 0.0805302 154.551 0.0549395 143.539C0.0331904 134.159 0.0252011 124.778 0.0349047 115.398C0.0394373 110.616 0.0376235 105.834 0.0181429 101.053C0.0004237 96.6652 0.00158335 92.2781 0.0170443 87.8907C0.0194071 86.3132 0.0151628 84.7357 0.00321217 83.1582C-0.0948577 69.3448 2.03968 56.1643 8.19593 43.6331C8.53406 42.9289 8.8722 42.2248 9.22058 41.4993C12.3663 35.2496 16.4531 30.339 21.5084 25.5081C22.3541 24.6212 23.1997 23.7343 24.0709 22.8206C24.8753 22.0575 25.6797 21.2943 26.5084 20.5081C27.055 19.9783 27.6016 19.4485 28.1647 18.9026C39.8589 8.04716 55.8071 0.399479 71.9199 0.373874ZM20.1881 30.0511C7.18402 45.6016 2.7169 62.948 2.88696 82.7711C2.88262 84.4395 2.8761 86.1079 2.86761 87.7764C2.85078 92.3098 2.86468 96.8427 2.88412 101.376C2.89966 106.285 2.88611 111.193 2.87637 116.102C2.8619 125.696 2.87403 135.291 2.89549 144.885C2.91959 156.069 2.91778 167.253 2.91518 178.437C2.9115 198.395 2.93226 218.353 2.96643 238.312C2.99954 257.66 3.01368 277.008 3.00745 296.356C3.00068 317.454 3.00316 338.552 3.02281 359.65C3.02385 360.766 3.02488 361.883 3.02596 363.033C3.02805 365.274 3.03016 367.516 3.0323 369.757C3.03918 377.547 3.03986 385.336 3.03841 393.125C3.03696 402.618 3.0467 412.111 3.07036 421.604C3.08219 426.444 3.08936 431.284 3.08352 436.124C3.07832 440.56 3.08712 444.995 3.1068 449.43C3.11151 451.03 3.11127 452.629 3.10539 454.228C3.0301 476.905 10.6241 495.108 26.1334 511.633C43.2271 528.148 63.8853 533.003 87.0923 532.896C88.5905 532.9 90.0888 532.905 91.5871 532.912C95.655 532.926 99.7228 532.922 103.791 532.915C108.197 532.91 112.603 532.923 117.01 532.933C125.623 532.95 134.236 532.951 142.85 532.946C149.856 532.942 156.862 532.943 163.868 532.948C164.868 532.949 165.868 532.95 166.898 532.951C168.93 532.952 170.963 532.954 172.995 532.955C192.018 532.969 211.042 532.964 230.065 532.952C247.437 532.942 264.809 532.955 282.181 532.979C300.056 533.004 317.931 533.013 335.807 533.006C345.827 533.003 355.848 533.005 365.868 533.023C374.398 533.038 382.928 533.038 391.457 533.021C395.802 533.012 400.146 533.01 404.491 533.025C434.049 533.123 460.229 531.46 482.583 509.649C498.828 492.84 503.834 472.167 503.762 449.391C503.765 447.774 503.768 446.157 503.772 444.539C503.78 440.12 503.776 435.701 503.77 431.281C503.765 426.505 503.772 421.729 503.778 416.954C503.787 407.607 503.785 398.26 503.779 388.913C503.774 381.314 503.774 373.715 503.776 366.115C503.777 364.491 503.777 364.491 503.777 362.834C503.778 360.635 503.778 358.435 503.779 356.235C503.785 335.62 503.778 315.004 503.767 294.389C503.758 276.714 503.76 259.04 503.769 241.365C503.78 220.825 503.784 200.285 503.778 179.745C503.777 177.553 503.777 175.361 503.776 173.169C503.776 172.09 503.775 171.012 503.775 169.9C503.773 162.315 503.776 154.729 503.781 147.143C503.787 137.892 503.785 128.641 503.774 119.39C503.769 114.674 503.767 109.957 503.774 105.241C503.78 100.917 503.776 96.5928 503.766 92.2687C503.764 90.7109 503.765 89.1532 503.77 87.5954C503.843 62.0802 497.721 40.8853 479.508 22.5081C473.397 16.9211 466.643 12.7916 459.258 9.1331C458.314 8.65006 458.314 8.65006 457.35 8.15727C445.422 2.60465 431.806 2.06117 418.884 2.13387C417.382 2.13112 415.879 2.12707 414.377 2.12183C410.297 2.11136 406.218 2.1193 402.138 2.13058C397.72 2.13949 393.301 2.13096 388.883 2.12472C380.247 2.11527 371.612 2.12179 362.977 2.13398C352.909 2.14766 342.841 2.14596 332.773 2.14385C314.805 2.14066 296.838 2.15229 278.87 2.17191C261.455 2.19093 244.04 2.198 226.625 2.19242C207.632 2.18636 188.639 2.18655 169.646 2.19791C167.619 2.19911 165.593 2.20032 163.566 2.20153C162.569 2.20213 161.572 2.20273 160.545 2.20335C153.535 2.20723 146.524 2.20684 139.514 2.20494C130.969 2.20281 122.424 2.20807 113.879 2.22255C109.523 2.22978 105.167 2.23389 100.811 2.22931C96.8176 2.22521 92.8245 2.23046 88.8312 2.24294C87.3927 2.24585 85.9542 2.24546 84.5158 2.24129C58.4789 2.17279 37.7479 10.8062 20.1881 30.0511Z" fill="#DBDBDC"/>
<path d="M397.508 152.071C398.705 152.072 399.901 152.073 401.133 152.075C405.931 152.691 408.346 154.267 411.621 157.764C413.788 160.915 414.01 162.423 414.016 166.201C414.033 167.904 414.033 167.904 414.05 169.642C414.042 170.878 414.034 172.115 414.026 173.389C414.033 174.698 414.04 176.008 414.047 177.357C414.065 180.942 414.058 184.526 414.046 188.111C414.036 191.865 414.045 195.62 414.051 199.375C414.058 205.679 414.049 211.984 414.03 218.289C414.008 225.574 414.015 232.859 414.037 240.144C414.055 246.403 414.058 252.662 414.047 258.922C414.041 262.658 414.04 266.394 414.054 270.131C414.067 274.297 414.048 278.462 414.026 282.627C414.034 283.864 414.042 285.1 414.05 286.374C414.039 287.51 414.028 288.645 414.016 289.815C414.015 290.8 414.013 291.784 414.012 292.799C413.366 296.275 411.917 297.969 409.508 300.508C405.879 302.323 401.693 301.864 397.696 301.946C396.793 301.991 395.89 302.037 394.96 302.084C393.644 302.107 393.644 302.107 392.301 302.129C391.502 302.154 390.703 302.179 389.88 302.205C386.979 301.353 385.447 299.961 383.579 297.611C381.233 293.004 381.838 287.655 381.893 282.606C381.885 280.656 381.885 280.656 381.876 278.667C381.862 275.113 381.879 271.56 381.903 268.006C381.923 264.282 381.917 260.558 381.914 256.834C381.915 250.582 381.934 244.331 381.966 238.079C382.003 230.856 382.012 223.633 382.005 216.41C381.999 209.453 382.01 202.497 382.029 195.541C382.037 192.584 382.04 189.627 382.038 186.67C382.037 182.54 382.061 178.411 382.088 174.281C382.085 173.056 382.083 171.83 382.08 170.567C382.097 168.879 382.097 168.879 382.114 167.156C382.118 166.18 382.121 165.205 382.125 164.199C382.738 159.893 384.757 157.271 387.758 154.223C391.223 152.062 393.449 152.005 397.508 152.071Z" fill="#5665F5"/>
<path d="M341.821 202.258C343.137 202.232 344.453 202.207 345.809 202.18C350.556 202.601 353.144 203.949 356.258 207.508C358.357 210.865 358.636 213.596 358.649 217.46C358.657 218.993 358.657 218.993 358.666 220.557C358.667 221.678 358.668 222.798 358.67 223.953C358.675 225.133 358.68 226.314 358.685 227.531C358.697 230.77 358.704 234.01 358.709 237.25C358.712 239.275 358.716 241.3 358.72 243.325C358.734 249.664 358.743 256.003 358.747 262.342C358.752 269.654 358.769 276.966 358.798 284.278C358.82 289.933 358.83 295.588 358.831 301.244C358.832 304.62 358.838 307.996 358.856 311.372C358.873 315.14 358.871 318.907 358.865 322.675C358.874 323.79 358.883 324.904 358.893 326.053C358.863 331.599 358.75 335.774 355.508 340.508C349.935 345.305 345.112 345.147 338.032 344.973C333.217 344.338 331.523 343.232 328.508 339.508C327.252 336.995 327.371 335.263 327.355 332.449C327.342 330.842 327.342 330.842 327.328 329.203C327.324 328.023 327.32 326.842 327.316 325.626C327.307 324.387 327.299 323.148 327.291 321.871C327.266 317.756 327.249 313.64 327.235 309.524C327.23 308.107 327.224 306.69 327.219 305.273C327.197 299.378 327.179 293.482 327.167 287.587C327.151 279.14 327.118 270.694 327.061 262.247C327.022 256.307 327.003 250.367 326.997 244.428C326.994 240.88 326.982 237.334 326.949 233.786C326.914 229.827 326.918 225.867 326.925 221.908C326.909 220.735 326.892 219.563 326.875 218.355C326.943 209.492 326.943 209.492 329.92 205.796C333.887 202.29 336.718 202.297 341.821 202.258Z" fill="#5665F4"/>
<path d="M294.805 258.2C299.135 260.41 300.771 263.112 302.508 267.508C302.925 270.462 302.929 273.376 302.912 276.356C302.919 277.225 302.926 278.094 302.933 278.989C302.952 281.85 302.948 284.71 302.942 287.571C302.947 289.565 302.952 291.56 302.958 293.555C302.967 297.731 302.964 301.907 302.954 306.083C302.943 311.43 302.963 316.776 302.992 322.123C303.011 326.24 303.01 330.358 303.005 334.476C303.005 336.447 303.011 338.418 303.023 340.39C303.038 343.147 303.027 345.903 303.01 348.66C303.02 349.471 303.029 350.282 303.039 351.117C302.971 356.359 301.989 359.357 298.508 363.508C294.369 366.268 290.999 365.913 286.133 365.946C285.283 365.978 284.432 366.011 283.555 366.045C279.113 366.083 277.121 365.967 273.469 363.231C270.019 358.44 270.351 353.742 270.331 347.995C270.325 347.138 270.318 346.28 270.312 345.397C270.292 342.563 270.28 339.729 270.27 336.895C270.266 335.925 270.262 334.956 270.258 333.957C270.237 328.827 270.223 323.696 270.213 318.566C270.202 313.273 270.168 307.981 270.128 302.688C270.102 298.612 270.094 294.537 270.09 290.461C270.085 288.51 270.073 286.559 270.055 284.608C270.031 281.875 270.032 279.143 270.038 276.409C270.026 275.608 270.013 274.808 270 273.983C270.051 268.379 271.312 265.132 274.508 260.508C280.087 255.977 288.114 256.185 294.805 258.2Z" fill="#5765F4"/>
<path d="M233.633 152.446C236.508 153.508 236.508 153.508 238.446 155.196C241.033 160.825 237.017 168.13 235.044 173.61C234.694 174.592 234.345 175.574 233.985 176.586C232.852 179.77 231.711 182.952 230.571 186.133C229.793 188.314 229.016 190.494 228.239 192.675C226.704 196.981 225.166 201.286 223.626 205.59C221.82 210.635 220.021 215.682 218.227 220.731C214.807 230.346 214.807 230.346 213.294 234.582C212.993 235.424 212.693 236.265 212.384 237.132C209.17 245.856 209.17 245.856 206.508 247.508C202.946 247.383 202.946 247.383 199.508 246.508C197.147 242.966 197.166 241.683 197.508 237.508C198.399 234.364 198.399 234.364 199.758 230.696C200.017 229.988 200.275 229.279 200.541 228.55C201.521 225.866 202.515 223.187 203.508 220.508C205.172 215.988 206.83 211.466 208.482 206.942C209.001 205.526 209.52 204.109 210.04 202.693C212.94 194.797 215.755 186.887 218.333 178.879C218.556 178.19 218.779 177.501 219.009 176.791C220.068 173.513 221.108 170.231 222.123 166.939C226.712 152.584 226.712 152.584 233.633 152.446Z" fill="#171D27"/>
<path d="M180.446 168.071C183.508 168.508 183.508 168.508 185.883 170.196C187.88 173.037 188.014 174.094 187.508 177.508C185.521 180.095 185.521 180.095 182.766 182.809C182.283 183.29 181.799 183.771 181.301 184.267C180.279 185.279 179.252 186.285 178.219 187.285C176.634 188.82 175.068 190.374 173.505 191.932C165.82 199.508 165.82 199.508 163.508 199.508C166.17 202.918 168.839 205.889 172.133 208.696C175.684 211.75 179.133 214.887 182.508 218.133C183.457 219.033 184.406 219.933 185.383 220.86C187.508 223.508 187.508 223.508 187.922 226.2C187.335 229.476 186.202 230.594 183.508 232.508C180.758 233.258 180.758 233.258 177.508 232.508C175.34 230.722 173.482 228.781 171.575 226.719C169.665 224.676 167.703 222.876 165.571 221.071C161.712 217.751 158.121 214.213 154.563 210.575C153.354 209.358 152.118 208.166 150.829 207.035C148.429 204.928 147.554 203.867 147.145 200.645C147.594 196.77 148.608 195.694 151.383 193.012C152.615 191.803 152.615 191.803 153.872 190.569C154.742 189.744 155.612 188.92 156.508 188.071C157.348 187.25 158.187 186.43 159.051 185.584C163.519 181.244 168.085 177.047 172.817 172.996C174.537 171.534 174.537 171.534 176.047 169.842C177.508 168.508 177.508 168.508 180.446 168.071Z" fill="#161B25"/>
<path d="M259.508 168.508C262.508 170.582 265.003 173.117 267.571 175.696C268.309 176.418 269.047 177.14 269.807 177.885C271.318 179.367 272.822 180.855 274.321 182.348C276.352 184.354 278.418 186.311 280.508 188.254C281.697 189.38 282.884 190.506 284.071 191.633C284.902 192.393 284.902 192.393 285.749 193.169C288.309 195.659 289.451 197.113 289.973 200.692C288.958 206.844 283.405 210.544 278.891 214.379C275.379 217.517 272.098 220.875 268.809 224.245C260.873 232.317 260.873 232.317 256.383 232.946C253.508 232.508 253.508 232.508 251.633 231.446C249.857 228.387 250.178 225.982 250.508 222.508C252.415 219.883 252.415 219.883 255.008 217.508C255.919 216.66 256.829 215.812 257.766 214.938C258.671 214.136 259.576 213.334 260.508 212.508C261.269 211.83 262.03 211.152 262.813 210.453C264.14 209.286 265.473 208.126 266.813 206.973C268.821 205.238 270.744 203.493 272.508 201.508C272.508 200.848 272.508 200.188 272.508 199.508C271.193 198.178 271.193 198.178 269.383 196.758C265.148 193.119 261.042 189.367 257.008 185.508C256.373 184.927 255.737 184.346 255.082 183.747C251.862 180.623 250.605 179.285 250.032 174.692C250.508 171.508 250.508 171.508 251.633 169.571C254.571 167.906 256.141 167.995 259.508 168.508Z" fill="#151B24"/>
<path d="M69.5084 1.50813C70.4984 2.49813 70.4984 2.49813 71.5084 3.50813C70.793 3.59449 70.0775 3.68086 69.3404 3.76984C49.7413 6.5335 32.7531 16.1737 20.1529 31.3441C18.1638 34.0087 16.3096 36.7137 14.5084 39.5081C14.0392 40.1991 13.57 40.89 13.0865 41.6019C5.34598 54.025 3.7634 68.298 3.88936 82.5592C3.88519 84.2045 3.87881 85.8497 3.87046 87.495C3.85394 91.964 3.86801 96.4326 3.88751 100.902C3.90307 105.741 3.88946 110.58 3.87943 115.418C3.86587 123.786 3.87006 132.153 3.88626 140.521C3.90941 152.623 3.90199 164.725 3.88673 176.827C3.86251 196.471 3.85823 216.116 3.86876 235.76C3.86939 236.934 3.87001 238.108 3.87065 239.317C3.87193 241.692 3.8732 244.068 3.87448 246.443C3.87511 247.621 3.87574 248.799 3.87639 250.013C3.87703 251.192 3.87766 252.371 3.87832 253.586C3.88514 266.707 3.88712 279.829 3.88732 292.951C3.88734 294.127 3.88736 295.303 3.88739 296.515C3.88732 316.105 3.87531 335.696 3.85636 355.286C3.84538 367.365 3.84624 379.443 3.8623 391.521C3.87274 399.784 3.87301 408.046 3.86518 416.309C3.86108 421.079 3.86207 425.849 3.87611 430.619C3.88889 434.982 3.88807 439.344 3.87624 443.706C3.87443 445.288 3.87776 446.869 3.88662 448.451C3.89792 450.594 3.89092 452.736 3.87921 454.879C3.88002 456.071 3.88083 457.263 3.88166 458.492C3.4774 461.759 2.72383 463.129 0.50841 465.508C0.416794 415.205 0.34634 364.902 0.304148 314.599C0.299146 308.656 0.293969 302.713 0.288684 296.77C0.287634 295.587 0.286583 294.404 0.285502 293.185C0.268111 274.045 0.236585 254.906 0.199801 235.766C0.162355 216.117 0.14017 196.468 0.13206 176.82C0.12658 164.702 0.109289 152.584 0.0767467 140.466C0.0555535 132.149 0.0492241 123.832 0.0544078 115.515C0.0569621 110.721 0.0531272 105.927 0.0315883 101.133C0.0119697 96.7347 0.0112371 92.3362 0.0248134 87.9374C0.0264887 86.3557 0.0215442 84.774 0.00887559 83.1923C-0.0953408 69.364 2.03266 56.1785 8.19591 43.6331C8.53405 42.929 8.87218 42.2248 9.22057 41.4993C12.3662 35.2497 16.4531 30.339 21.5084 25.5081C22.354 24.6213 23.1997 23.7344 24.0709 22.8206C24.8753 22.0575 25.6797 21.2944 26.5084 20.5081C27.055 19.9783 27.6015 19.4485 28.1647 18.9027C36.7819 10.9035 57.0109 -3.23229 69.5084 1.50813Z" fill="#E4E4E5"/>
<path d="M403.758 330.758C406.547 332.533 407.79 333.732 409.508 336.508C410.307 340.539 410.413 344.684 408.559 348.422C406.047 351.64 403.485 353.656 399.508 354.508C393.415 354.397 390.669 352.669 386.508 348.508C384.906 343.699 384.736 339.337 386.696 334.696C391.467 328.938 396.841 328.098 403.758 330.758Z" fill="#F6F6F6"/>
<path d="M289.508 395.508C292.8 397.609 294.342 399.258 296.508 402.508C297 407.716 296.398 411.123 293.508 415.508C289.724 418.948 285.792 419.02 280.883 418.86C277.428 418.348 275.774 417.127 273.508 414.508C271.469 410.817 270.997 407.688 271.508 403.508C275.799 395.404 280.806 393.155 289.508 395.508Z" fill="#F5F5F6"/>
<path d="M109.758 395.758C112.547 397.533 113.79 398.732 115.508 401.508C116.313 405.574 116.461 409.748 114.454 413.457C112.07 416.37 110.111 418.306 106.337 418.782C98.5178 419.09 98.5178 419.09 94.9459 416.196C91.5754 412.479 91.1592 409.545 91.2233 404.575C91.7917 400.456 94.0789 397.593 97.3209 395.133C101.809 393.851 105.421 394.09 109.758 395.758Z" fill="#F7F7F7"/>
<path d="M197.508 349.508C202.07 351.374 204.256 354.171 206.508 358.508C207.166 362.127 207.265 364.315 205.262 367.473C202.787 370.492 201.275 372.253 197.508 373.508C189.879 374.259 189.879 374.259 186.133 371.258C182.722 367.684 181.741 366.052 181.008 361.196C181.674 356.284 183.92 353.799 187.508 350.508C190.707 348.909 194.03 349.146 197.508 349.508Z" fill="#F5F5F5"/>
<path d="M93.5084 383.508C93.5084 385.508 93.5084 385.508 92.0826 387.051C91.46 387.594 90.8374 388.136 90.1959 388.696C89.581 389.246 88.9662 389.796 88.3326 390.364C87.7306 390.741 87.1287 391.119 86.5084 391.508C85.5184 391.178 84.5284 390.848 83.5084 390.508C84.7947 389.336 86.0876 388.17 87.3834 387.008C88.4624 386.034 88.4624 386.034 89.5631 385.039C91.5084 383.508 91.5084 383.508 93.5084 383.508Z" fill="#1F2631"/>
<path d="M260.508 212.508C260.508 216.417 259.003 217.624 256.508 220.508C255.518 220.178 254.528 219.848 253.508 219.508C255.818 217.198 258.128 214.888 260.508 212.508Z" fill="#282E37"/>
</svg>
